<mxfile host="app.diagrams.net" modified="2020-12-14T08:39:36.258Z" agent="5.0 (Windows NT 10.0; Win64; x64) AppleWebKit/537.36 (KHTML, like Gecko) Chrome/87.0.4280.88 Safari/537.36" etag="csHgTYLSp0FfL_xwo9FL" version="14.0.1" type="github">
  <diagram id="cpgGfN65SDcUuJHPmJmD" name="Page-1">
    <mxGraphModel dx="1953" dy="1068" grid="1" gridSize="10" guides="1" tooltips="1" connect="1" arrows="1" fold="1" page="1" pageScale="1" pageWidth="850" pageHeight="1100" math="0" shadow="0">
      <root>
        <mxCell id="0" />
        <mxCell id="1" parent="0" />
        <mxCell id="Bute2PtF-87hg-K_BfrG-1" value="&lt;span id=&quot;docs-internal-guid-6ab7e09c-7fff-3b22-0e35-2b165f5e0c1f&quot;&gt;&lt;p dir=&quot;ltr&quot; style=&quot;line-height: 1.38 ; margin-top: 12pt ; margin-bottom: 12pt&quot;&gt;&lt;span style=&quot;font-size: 11pt ; font-family: &amp;#34;arial&amp;#34; ; background-color: transparent ; vertical-align: baseline&quot;&gt;Car (&lt;/span&gt;&lt;span style=&quot;font-size: 11pt ; font-family: &amp;#34;arial&amp;#34; ; background-color: transparent ; vertical-align: baseline&quot;&gt;&lt;u&gt;serialNo&lt;/u&gt;&lt;/span&gt;&lt;span style=&quot;font-size: 11pt ; font-family: &amp;#34;arial&amp;#34; ; background-color: transparent ; vertical-align: baseline&quot;&gt;,&amp;nbsp; &lt;b&gt;&lt;u&gt;custName&lt;/u&gt;&lt;/b&gt;, make, model, year, color, trim, engType)&lt;/span&gt;&lt;/p&gt;&lt;div&gt;&lt;span style=&quot;font-size: 11pt ; font-family: &amp;#34;arial&amp;#34; ; background-color: transparent ; vertical-align: baseline&quot;&gt;&lt;br&gt;&lt;/span&gt;&lt;/div&gt;&lt;/span&gt;" style="text;html=1;strokeColor=none;fillColor=none;align=center;verticalAlign=middle;whiteSpace=wrap;rounded=0;" parent="1" vertex="1">
          <mxGeometry x="237.5" y="1050" width="370" height="40" as="geometry" />
        </mxCell>
        <mxCell id="Bute2PtF-87hg-K_BfrG-2" value="&lt;span id=&quot;docs-internal-guid-f85bfaa0-7fff-9a6b-ba9b-2f663f60cca4&quot; style=&quot;text-align: left ; font-size: 13px&quot;&gt;&lt;p dir=&quot;ltr&quot; style=&quot;line-height: 1.38 ; margin-top: 12pt ; margin-bottom: 12pt&quot;&gt;&lt;span style=&quot;font-size: 11pt ; font-family: &amp;#34;arial&amp;#34; ; background-color: transparent ; vertical-align: baseline&quot;&gt;MailingList (&lt;/span&gt;&lt;span style=&quot;font-size: 11pt ; font-family: &amp;#34;arial&amp;#34; ; background-color: transparent ; vertical-align: baseline&quot;&gt;&lt;u&gt;salesmanName&lt;/u&gt;&lt;/span&gt;&lt;span style=&quot;font-size: 11pt ; font-family: &amp;#34;arial&amp;#34; ; background-color: transparent ; vertical-align: baseline&quot;&gt;,&amp;nbsp;&lt;/span&gt;&lt;span style=&quot;font-size: 11pt ; font-family: &amp;#34;arial&amp;#34; ; background-color: transparent ; font-weight: 700 ; vertical-align: baseline&quot;&gt;custName&lt;/span&gt;&lt;span style=&quot;font-size: 11pt ; font-family: &amp;#34;arial&amp;#34; ; background-color: transparent ; vertical-align: baseline&quot;&gt;)&lt;/span&gt;&lt;/p&gt;&lt;div&gt;&lt;span style=&quot;font-size: 11pt ; font-family: &amp;#34;arial&amp;#34; ; background-color: transparent ; vertical-align: baseline&quot;&gt;&lt;br&gt;&lt;/span&gt;&lt;/div&gt;&lt;/span&gt;" style="text;html=1;strokeColor=none;fillColor=none;align=center;verticalAlign=middle;whiteSpace=wrap;rounded=0;" parent="1" vertex="1">
          <mxGeometry x="240" y="760" width="267.5" height="50" as="geometry" />
        </mxCell>
        <mxCell id="Bute2PtF-87hg-K_BfrG-6" value="&lt;span id=&quot;docs-internal-guid-f85bfaa0-7fff-9a6b-ba9b-2f663f60cca4&quot; style=&quot;text-align: left ; font-size: 13px&quot;&gt;&lt;p dir=&quot;ltr&quot; style=&quot;line-height: 1.38 ; margin-top: 12pt ; margin-bottom: 12pt&quot;&gt;&lt;span style=&quot;font-size: 11pt ; font-family: &amp;#34;arial&amp;#34; ; background-color: transparent ; vertical-align: baseline&quot;&gt;Customer (&lt;/span&gt;&lt;span style=&quot;font-size: 11pt ; font-family: &amp;#34;arial&amp;#34; ; background-color: transparent ; vertical-align: baseline&quot;&gt;&lt;u&gt;custName&lt;/u&gt;&lt;/span&gt;&lt;span style=&quot;font-size: 11pt ; font-family: &amp;#34;arial&amp;#34; ; background-color: transparent ; vertical-align: baseline&quot;&gt;, custAddress, custCity, custProv, custPCode, custPhoneH, custPhoneW)&lt;/span&gt;&lt;/p&gt;&lt;span id=&quot;docs-internal-guid-f85bfaa0-7fff-9a6b-ba9b-2f663f60cca4&quot;&gt;&lt;/span&gt;&lt;/span&gt;" style="text;html=1;strokeColor=none;fillColor=none;align=center;verticalAlign=middle;whiteSpace=wrap;rounded=0;" parent="1" vertex="1">
          <mxGeometry x="240" y="830" width="465" height="30" as="geometry" />
        </mxCell>
        <mxCell id="Bute2PtF-87hg-K_BfrG-7" value="&lt;span id=&quot;docs-internal-guid-f85bfaa0-7fff-9a6b-ba9b-2f663f60cca4&quot; style=&quot;text-align: left ; font-size: 13px&quot;&gt;&lt;p dir=&quot;ltr&quot; style=&quot;line-height: 1.38 ; margin-top: 12pt ; margin-bottom: 12pt&quot;&gt;&lt;span style=&quot;background-color: transparent ; font-size: 11pt ; font-family: &amp;#34;arial&amp;#34; ; vertical-align: baseline&quot;&gt;ProspectList (&lt;u&gt;preferenceID&lt;/u&gt;,&lt;/span&gt;&lt;span style=&quot;background-color: transparent ; font-size: 11pt ; font-family: &amp;#34;arial&amp;#34; ; vertical-align: baseline&quot;&gt;&lt;b&gt;&lt;u&gt;custName&lt;/u&gt;&lt;/b&gt;&lt;/span&gt;&lt;span style=&quot;background-color: transparent ; font-size: 11pt ; font-family: &amp;#34;arial&amp;#34; ; vertical-align: baseline&quot;&gt;,&lt;/span&gt;&lt;span style=&quot;background-color: transparent ; font-size: 11pt ; font-family: &amp;#34;arial&amp;#34; ; vertical-align: baseline&quot;&gt;)&lt;/span&gt;&lt;br&gt;&lt;/p&gt;&lt;div&gt;&lt;span style=&quot;background-color: transparent ; font-size: 11pt ; font-family: &amp;#34;arial&amp;#34; ; vertical-align: baseline&quot;&gt;&lt;br&gt;&lt;/span&gt;&lt;/div&gt;&lt;/span&gt;" style="text;html=1;strokeColor=none;fillColor=none;align=center;verticalAlign=middle;whiteSpace=wrap;rounded=0;" parent="1" vertex="1">
          <mxGeometry x="237.5" y="880" width="270" height="30" as="geometry" />
        </mxCell>
        <mxCell id="Bute2PtF-87hg-K_BfrG-15" value="&lt;span id=&quot;docs-internal-guid-f6cc1f4a-7fff-d2e0-5640-ac946ab315d1&quot;&gt;&lt;p dir=&quot;ltr&quot; style=&quot;line-height: 1.38 ; margin-top: 12pt ; margin-bottom: 12pt&quot;&gt;&lt;span style=&quot;font-size: 11pt ; font-family: &amp;#34;arial&amp;#34; ; background-color: transparent ; vertical-align: baseline&quot;&gt;Salesman (&lt;/span&gt;&lt;span style=&quot;font-size: 11pt ; font-family: &amp;#34;arial&amp;#34; ; background-color: transparent ; vertical-align: baseline&quot;&gt;&lt;u&gt;salesman&lt;/u&gt;&lt;/span&gt;&lt;span style=&quot;font-size: 11pt ; font-family: &amp;#34;arial&amp;#34; ; background-color: transparent ; vertical-align: baseline&quot;&gt;, &lt;/span&gt;&lt;span style=&quot;font-size: 11pt ; font-family: &amp;#34;arial&amp;#34; ; background-color: transparent ; font-weight: 700 ; vertical-align: baseline&quot;&gt;invNo&lt;/span&gt;&lt;span style=&quot;font-size: 11pt ; font-family: &amp;#34;arial&amp;#34; ; background-color: transparent ; vertical-align: baseline&quot;&gt;)&lt;/span&gt;&lt;/p&gt;&lt;div&gt;&lt;span style=&quot;font-size: 11pt ; font-family: &amp;#34;arial&amp;#34; ; background-color: transparent ; vertical-align: baseline&quot;&gt;&lt;br&gt;&lt;/span&gt;&lt;/div&gt;&lt;/span&gt;" style="text;html=1;strokeColor=none;fillColor=none;align=center;verticalAlign=middle;whiteSpace=wrap;rounded=0;" parent="1" vertex="1">
          <mxGeometry x="235" y="730" width="195" height="20" as="geometry" />
        </mxCell>
        <mxCell id="Bute2PtF-87hg-K_BfrG-17" value="&lt;span id=&quot;docs-internal-guid-f85bfaa0-7fff-9a6b-ba9b-2f663f60cca4&quot; style=&quot;text-align: left ; font-size: 16px&quot;&gt;&lt;p dir=&quot;ltr&quot; style=&quot;line-height: 1.38 ; margin-top: 12pt ; margin-bottom: 12pt&quot;&gt;&lt;span style=&quot;font-family: &amp;#34;arial&amp;#34; ; background-color: transparent ; vertical-align: baseline&quot;&gt;InventoryRecord (&lt;/span&gt;&lt;span style=&quot;font-family: &amp;#34;arial&amp;#34; ; background-color: transparent ; vertical-align: baseline&quot;&gt;&lt;b&gt;&lt;u&gt;serialNo&lt;/u&gt;&lt;/b&gt;&lt;/span&gt;&lt;span style=&quot;font-family: &amp;#34;arial&amp;#34; ; background-color: transparent ; vertical-align: baseline&quot;&gt;,&amp;nbsp;&lt;/span&gt;&lt;span style=&quot;font-family: &amp;#34;arial&amp;#34; ; background-color: transparent ; vertical-align: baseline&quot;&gt;custName&lt;/span&gt;&lt;span style=&quot;font-family: &amp;#34;arial&amp;#34; ; background-color: transparent ; vertical-align: baseline&quot;&gt;,&amp;nbsp;&lt;/span&gt;&lt;span style=&quot;font-family: &amp;#34;arial&amp;#34; ; background-color: transparent ; vertical-align: baseline&quot;&gt;salesInvNo&lt;/span&gt;&lt;span style=&quot;font-family: &amp;#34;arial&amp;#34; ; background-color: transparent ; vertical-align: baseline&quot;&gt;, date, cost, listBasePrice)&lt;/span&gt;&lt;/p&gt;&lt;div&gt;&lt;span style=&quot;font-family: &amp;#34;arial&amp;#34; ; background-color: transparent ; vertical-align: baseline&quot;&gt;&lt;br&gt;&lt;/span&gt;&lt;/div&gt;&lt;/span&gt;" style="text;html=1;strokeColor=none;fillColor=none;align=center;verticalAlign=middle;whiteSpace=wrap;rounded=0;" parent="1" vertex="1">
          <mxGeometry x="240" y="230" width="470" height="40" as="geometry" />
        </mxCell>
        <mxCell id="Bute2PtF-87hg-K_BfrG-19" value="&lt;span id=&quot;docs-internal-guid-f85bfaa0-7fff-9a6b-ba9b-2f663f60cca4&quot; style=&quot;text-align: left ; font-size: 13px&quot;&gt;&lt;p dir=&quot;ltr&quot; style=&quot;line-height: 1.38 ; margin-top: 12pt ; margin-bottom: 12pt&quot;&gt;&lt;span style=&quot;font-size: 11pt ; font-family: &amp;#34;arial&amp;#34; ; background-color: transparent ; vertical-align: baseline&quot;&gt;SaleInvoiceOptions (&lt;/span&gt;&lt;span style=&quot;font-size: 11pt ; font-family: &amp;#34;arial&amp;#34; ; background-color: transparent ; vertical-align: baseline&quot;&gt;&lt;b&gt;&lt;u&gt;salesInvNo&lt;/u&gt;&lt;/b&gt;&lt;/span&gt;&lt;span style=&quot;font-size: 11pt ; font-family: &amp;#34;arial&amp;#34; ; background-color: transparent ; vertical-align: baseline&quot;&gt;, code, desc, price)&lt;/span&gt;&lt;/p&gt;&lt;div&gt;&lt;span style=&quot;font-size: 11pt ; font-family: &amp;#34;arial&amp;#34; ; background-color: transparent ; vertical-align: baseline&quot;&gt;&lt;br&gt;&lt;/span&gt;&lt;/div&gt;&lt;/span&gt;" style="text;html=1;strokeColor=none;fillColor=none;align=center;verticalAlign=middle;whiteSpace=wrap;rounded=0;" parent="1" vertex="1">
          <mxGeometry x="242.5" y="350" width="340" height="40" as="geometry" />
        </mxCell>
        <mxCell id="uWfIgpHhgvvb1_PHxDeI-2" value="&lt;span id=&quot;docs-internal-guid-f85bfaa0-7fff-9a6b-ba9b-2f663f60cca4&quot; style=&quot;text-align: left ; font-size: 13px&quot;&gt;&lt;p dir=&quot;ltr&quot; style=&quot;line-height: 1.38 ; margin-top: 12pt ; margin-bottom: 12pt&quot;&gt;&lt;span style=&quot;background-color: transparent ; font-size: 11pt ; font-family: &amp;#34;arial&amp;#34; ; vertical-align: baseline&quot;&gt;ServiceLog (&lt;/span&gt;&lt;span style=&quot;background-color: transparent ; font-size: 11pt ; font-family: &amp;#34;arial&amp;#34; ; vertical-align: baseline&quot;&gt;&lt;u&gt;service&lt;/u&gt;&lt;/span&gt;&lt;span style=&quot;background-color: transparent ; font-size: 11pt ; font-family: &amp;#34;arial&amp;#34; ; vertical-align: baseline&quot;&gt;,&amp;nbsp;&lt;/span&gt;&lt;span style=&quot;background-color: transparent ; font-size: 11pt ; font-family: &amp;#34;arial&amp;#34; ; font-weight: 700 ; vertical-align: baseline&quot;&gt;&lt;u&gt;serviceInvNo&lt;/u&gt;&lt;/span&gt;&lt;span style=&quot;background-color: transparent ; font-size: 11pt ; font-family: &amp;#34;arial&amp;#34; ; vertical-align: baseline&quot;&gt;, date,&amp;nbsp;&lt;/span&gt;&lt;span style=&quot;background-color: transparent ; font-size: 11pt ; font-family: &amp;#34;arial&amp;#34; ; font-weight: 700 ; vertical-align: baseline&quot;&gt;&lt;u&gt;serialNo&lt;/u&gt;&lt;/span&gt;&lt;span style=&quot;background-color: transparent ; font-size: 11pt ; font-family: &amp;#34;arial&amp;#34; ; vertical-align: baseline&quot;&gt;)&lt;/span&gt;&lt;/p&gt;&lt;div&gt;&lt;span style=&quot;background-color: transparent ; font-size: 11pt ; font-family: &amp;#34;arial&amp;#34; ; vertical-align: baseline&quot;&gt;&lt;br&gt;&lt;/span&gt;&lt;/div&gt;&lt;/span&gt;" style="text;html=1;strokeColor=none;fillColor=none;align=center;verticalAlign=middle;whiteSpace=wrap;rounded=0;" parent="1" vertex="1">
          <mxGeometry x="235" y="1000" width="355" height="30" as="geometry" />
        </mxCell>
        <mxCell id="uWfIgpHhgvvb1_PHxDeI-3" value="&lt;span id=&quot;docs-internal-guid-f85bfaa0-7fff-9a6b-ba9b-2f663f60cca4&quot; style=&quot;text-align: left ; font-size: 13px&quot;&gt;&lt;p dir=&quot;ltr&quot; style=&quot;line-height: 1.38 ; margin-top: 12pt ; margin-bottom: 12pt&quot;&gt;&lt;span style=&quot;font-size: 11pt ; font-family: &amp;#34;arial&amp;#34; ; background-color: transparent ; vertical-align: baseline&quot;&gt;&lt;span style=&quot;background-color: transparent ; font-size: 11pt ; vertical-align: baseline&quot;&gt;Comission(&lt;/span&gt;&lt;span style=&quot;background-color: transparent ; font-size: 11pt ; vertical-align: baseline&quot;&gt;&lt;u&gt;salesInvNo&lt;/u&gt;&lt;/span&gt;&lt;span style=&quot;background-color: transparent ; font-size: 11pt ; vertical-align: baseline&quot;&gt;,&amp;nbsp;&lt;/span&gt;&lt;span style=&quot;background-color: transparent ; font-size: 11pt ; vertical-align: baseline&quot;&gt;&lt;b&gt;&lt;u&gt;salesmanName&lt;/u&gt;&lt;/b&gt;&lt;/span&gt;&lt;span style=&quot;background-color: transparent ; font-size: 11pt ; vertical-align: baseline&quot;&gt;)&lt;/span&gt;&lt;br&gt;&lt;/span&gt;&lt;/p&gt;&lt;div&gt;&lt;span style=&quot;font-size: 11pt ; font-family: &amp;#34;arial&amp;#34; ; background-color: transparent ; vertical-align: baseline&quot;&gt;&lt;span style=&quot;background-color: transparent ; font-size: 11pt ; vertical-align: baseline&quot;&gt;&lt;br&gt;&lt;/span&gt;&lt;/span&gt;&lt;/div&gt;&lt;/span&gt;" style="text;html=1;strokeColor=none;fillColor=none;align=center;verticalAlign=middle;whiteSpace=wrap;rounded=0;" parent="1" vertex="1">
          <mxGeometry x="241.25" y="535" width="275" height="30" as="geometry" />
        </mxCell>
        <mxCell id="uWfIgpHhgvvb1_PHxDeI-5" value="&lt;span id=&quot;docs-internal-guid-f85bfaa0-7fff-9a6b-ba9b-2f663f60cca4&quot; style=&quot;text-align: left ; font-size: 13px&quot;&gt;&lt;p dir=&quot;ltr&quot; style=&quot;line-height: 1.38 ; margin-top: 12pt ; margin-bottom: 12pt&quot;&gt;&lt;span style=&quot;font-size: 11pt ; font-family: &amp;#34;arial&amp;#34; ; background-color: transparent ; vertical-align: baseline&quot;&gt;SaleInvoiceInsurance (&lt;/span&gt;&lt;span style=&quot;font-size: 11pt ; font-family: &amp;#34;arial&amp;#34; ; background-color: transparent ; vertical-align: baseline&quot;&gt;&lt;u&gt;salesInvNo&lt;/u&gt;&lt;/span&gt;&lt;span style=&quot;font-size: 11pt ; font-family: &amp;#34;arial&amp;#34; ; background-color: transparent ; vertical-align: baseline&quot;&gt;, fireTheft, liability, collision, propDmg)&lt;/span&gt;&lt;/p&gt;&lt;div&gt;&lt;span style=&quot;font-size: 11pt ; font-family: &amp;#34;arial&amp;#34; ; background-color: transparent ; vertical-align: baseline&quot;&gt;&lt;br&gt;&lt;/span&gt;&lt;/div&gt;&lt;/span&gt;" style="text;html=1;strokeColor=none;fillColor=none;align=center;verticalAlign=middle;whiteSpace=wrap;rounded=0;" parent="1" vertex="1">
          <mxGeometry x="235" y="490" width="505" height="30" as="geometry" />
        </mxCell>
        <mxCell id="uWfIgpHhgvvb1_PHxDeI-8" value="&lt;span id=&quot;docs-internal-guid-f85bfaa0-7fff-9a6b-ba9b-2f663f60cca4&quot; style=&quot;text-align: left ; font-size: 13px&quot;&gt;&lt;p dir=&quot;ltr&quot; style=&quot;line-height: 1.38 ; margin-top: 12pt ; margin-bottom: 12pt&quot;&gt;&lt;span style=&quot;font-size: 11pt ; font-family: &amp;#34;arial&amp;#34; ; background-color: transparent ; vertical-align: baseline&quot;&gt;SaleInvoiceTradeIn (&lt;/span&gt;&lt;span style=&quot;font-size: 11pt ; font-family: &amp;#34;arial&amp;#34; ; background-color: transparent ; vertical-align: baseline&quot;&gt;&lt;u&gt;salesInvNo&lt;/u&gt;&lt;/span&gt;&lt;span style=&quot;font-size: 11pt ; font-family: &amp;#34;arial&amp;#34; ; background-color: transparent ; vertical-align: baseline&quot;&gt;,&amp;nbsp;&lt;/span&gt;&lt;span style=&quot;font-size: 11pt ; font-family: &amp;#34;arial&amp;#34; ; background-color: transparent ; font-weight: 700 ; vertical-align: baseline&quot;&gt;&lt;u&gt;serialNo&lt;/u&gt;&lt;/span&gt;&lt;span style=&quot;font-size: 11pt ; font-family: &amp;#34;arial&amp;#34; ; background-color: transparent ; vertical-align: baseline&quot;&gt;, make, model, year, allowance)&lt;/span&gt;&lt;/p&gt;&lt;div&gt;&lt;span style=&quot;font-size: 11pt ; font-family: &amp;#34;arial&amp;#34; ; background-color: transparent ; vertical-align: baseline&quot;&gt;&lt;br&gt;&lt;/span&gt;&lt;/div&gt;&lt;/span&gt;" style="text;html=1;strokeColor=none;fillColor=none;align=center;verticalAlign=middle;whiteSpace=wrap;rounded=0;" parent="1" vertex="1">
          <mxGeometry x="235" y="400" width="495" height="40" as="geometry" />
        </mxCell>
        <mxCell id="uWfIgpHhgvvb1_PHxDeI-11" value="&lt;span id=&quot;docs-internal-guid-f85bfaa0-7fff-9a6b-ba9b-2f663f60cca4&quot; style=&quot;text-align: left ; font-size: 13px&quot;&gt;&lt;p dir=&quot;ltr&quot; style=&quot;line-height: 1.38 ; margin-top: 12pt ; margin-bottom: 12pt&quot;&gt;&lt;span style=&quot;font-size: 11pt ; font-family: &amp;#34;arial&amp;#34; ; background-color: transparent ; vertical-align: baseline&quot;&gt;SaleAccoutingtSupplement (&lt;/span&gt;&lt;span style=&quot;font-size: 11pt ; font-family: &amp;#34;arial&amp;#34; ; background-color: transparent ; vertical-align: baseline&quot;&gt;&lt;u&gt;salesInvNo&lt;/u&gt;&lt;/span&gt;&lt;span style=&quot;font-size: 11pt ; font-family: &amp;#34;arial&amp;#34; ; background-color: transparent ; vertical-align: baseline&quot;&gt;, &lt;b&gt;&lt;u&gt;salesMan&lt;/u&gt;&lt;/b&gt;, date, &lt;b&gt;&lt;u&gt;serialNo&lt;/u&gt;&lt;/b&gt;,&amp;nbsp; purchCost, salePrice, freightNPrep, tax, license, other, commision)&lt;/span&gt;&lt;/p&gt;&lt;div&gt;&lt;span style=&quot;font-size: 11pt ; font-family: &amp;#34;arial&amp;#34; ; background-color: transparent ; vertical-align: baseline&quot;&gt;&lt;br&gt;&lt;/span&gt;&lt;/div&gt;&lt;/span&gt;" style="text;html=1;strokeColor=none;fillColor=none;align=center;verticalAlign=middle;whiteSpace=wrap;rounded=0;" parent="1" vertex="1">
          <mxGeometry x="240" y="580" width="495" height="40" as="geometry" />
        </mxCell>
        <mxCell id="uWfIgpHhgvvb1_PHxDeI-15" value="&lt;span style=&quot;text-align: left ; background-color: transparent ; font-size: 11pt ; font-family: &amp;#34;arial&amp;#34; ; vertical-align: baseline&quot;&gt;SaleInvoice&amp;nbsp; (&lt;/span&gt;&lt;span style=&quot;text-align: left ; background-color: transparent ; font-size: 11pt ; font-family: &amp;#34;arial&amp;#34; ; vertical-align: baseline&quot;&gt;&lt;u&gt;salesInvNo&lt;/u&gt;&lt;/span&gt;&lt;span style=&quot;text-align: left ; background-color: transparent ; font-size: 11pt ; font-family: &amp;#34;arial&amp;#34; ; vertical-align: baseline&quot;&gt;, invoiceDate,&amp;nbsp;&lt;/span&gt;&lt;span style=&quot;text-align: left ; background-color: transparent ; font-size: 11pt ; font-family: &amp;#34;arial&amp;#34; ; font-weight: 700 ; vertical-align: baseline&quot;&gt;&lt;u&gt;custName&lt;/u&gt;&lt;/span&gt;&lt;span style=&quot;text-align: left ; background-color: transparent ; font-size: 11pt ; font-family: &amp;#34;arial&amp;#34; ; vertical-align: baseline&quot;&gt;,&amp;nbsp;&lt;/span&gt;&lt;span style=&quot;text-align: left ; background-color: transparent ; font-size: 11pt ; font-family: &amp;#34;arial&amp;#34; ; font-weight: 700 ; vertical-align: baseline&quot;&gt;&lt;u&gt;salesmanName&lt;/u&gt;&lt;/span&gt;&lt;span style=&quot;text-align: left ; background-color: transparent ; font-size: 11pt ; font-family: &amp;#34;arial&amp;#34; ; vertical-align: baseline&quot;&gt;,&amp;nbsp;&lt;/span&gt;&lt;span style=&quot;text-align: left ; background-color: transparent ; font-size: 11pt ; font-family: &amp;#34;arial&amp;#34; ; font-weight: 700 ; vertical-align: baseline&quot;&gt;&lt;u&gt;serialNo&lt;/u&gt;&lt;/span&gt;&lt;span style=&quot;text-align: left ; background-color: transparent ; font-size: 11pt ; font-family: &amp;#34;arial&amp;#34; ; vertical-align: baseline&quot;&gt;, tradeInAllowance, discount, net, tax)&lt;/span&gt;" style="text;html=1;strokeColor=none;fillColor=none;align=center;verticalAlign=middle;whiteSpace=wrap;rounded=0;" parent="1" vertex="1">
          <mxGeometry x="235" y="640" width="535" height="50" as="geometry" />
        </mxCell>
        <mxCell id="uWfIgpHhgvvb1_PHxDeI-20" value="&lt;span id=&quot;docs-internal-guid-f85bfaa0-7fff-9a6b-ba9b-2f663f60cca4&quot; style=&quot;text-align: left ; font-size: 13px&quot;&gt;&lt;p dir=&quot;ltr&quot; style=&quot;line-height: 1.38 ; margin-top: 12pt ; margin-bottom: 12pt&quot;&gt;&lt;span style=&quot;font-size: 11pt ; font-family: &amp;#34;arial&amp;#34; ; background-color: transparent ; vertical-align: baseline&quot;&gt;ServiceWorkOrder (&lt;/span&gt;&lt;span style=&quot;font-size: 11pt ; font-family: &amp;#34;arial&amp;#34; ; background-color: transparent ; vertical-align: baseline&quot;&gt;&lt;u&gt;serviceInvNo&lt;/u&gt;&lt;/span&gt;&lt;span style=&quot;font-size: 11pt ; font-family: &amp;#34;arial&amp;#34; ; background-color: transparent ; vertical-align: baseline&quot;&gt;, date,&amp;nbsp;&lt;/span&gt;&lt;span style=&quot;font-size: 11pt ; font-family: &amp;#34;arial&amp;#34; ; background-color: transparent ; font-weight: 700 ; vertical-align: baseline&quot;&gt;&lt;u&gt;custName&lt;/u&gt;&lt;/span&gt;&lt;span style=&quot;font-size: 11pt ; font-family: &amp;#34;arial&amp;#34; ; background-color: transparent ; vertical-align: baseline&quot;&gt;,&amp;nbsp;&lt;/span&gt;&lt;span style=&quot;font-size: 11pt ; font-family: &amp;#34;arial&amp;#34; ; background-color: transparent ; font-weight: 700 ; vertical-align: baseline&quot;&gt;&lt;u&gt;serialNo&lt;/u&gt;&lt;/span&gt;&lt;span style=&quot;font-size: 11pt ; font-family: &amp;#34;arial&amp;#34; ; background-color: transparent ; vertical-align: baseline&quot;&gt;, parts, labour, tax)&lt;/span&gt;&lt;/p&gt;&lt;div&gt;&lt;span style=&quot;font-size: 11pt ; font-family: &amp;#34;arial&amp;#34; ; background-color: transparent ; vertical-align: baseline&quot;&gt;&lt;br&gt;&lt;/span&gt;&lt;/div&gt;&lt;/span&gt;" style="text;html=1;strokeColor=none;fillColor=none;align=center;verticalAlign=middle;whiteSpace=wrap;rounded=0;" parent="1" vertex="1">
          <mxGeometry x="242.5" y="950" width="520" height="30" as="geometry" />
        </mxCell>
        <mxCell id="uWfIgpHhgvvb1_PHxDeI-48" value="&lt;span id=&quot;docs-internal-guid-f85bfaa0-7fff-9a6b-ba9b-2f663f60cca4&quot; style=&quot;text-align: left ; font-size: 13px&quot;&gt;&lt;p dir=&quot;ltr&quot; style=&quot;line-height: 1.38 ; margin-top: 12pt ; margin-bottom: 12pt&quot;&gt;&lt;span style=&quot;font-size: 11pt ; font-family: &amp;#34;arial&amp;#34; ; background-color: transparent ; vertical-align: baseline&quot;&gt;Want (&lt;u&gt;wantId&lt;/u&gt;&lt;/span&gt;&lt;span style=&quot;font-size: 11pt ; font-family: &amp;#34;arial&amp;#34; ; background-color: transparent ; vertical-align: baseline&quot;&gt;, year, color, make, model, trim, optionCode, optionDesc)&lt;/span&gt;&lt;/p&gt;&lt;div&gt;&lt;span style=&quot;font-size: 11pt ; font-family: &amp;#34;arial&amp;#34; ; background-color: transparent ; vertical-align: baseline&quot;&gt;&lt;br&gt;&lt;/span&gt;&lt;/div&gt;&lt;/span&gt;" style="text;html=1;strokeColor=none;fillColor=none;align=center;verticalAlign=middle;whiteSpace=wrap;rounded=0;" parent="1" vertex="1">
          <mxGeometry x="241.25" y="910" width="462.5" height="30" as="geometry" />
        </mxCell>
        <mxCell id="eNYuHUuUJ5BOVfInrnfF-1" value="&lt;span id=&quot;docs-internal-guid-f85bfaa0-7fff-9a6b-ba9b-2f663f60cca4&quot; style=&quot;text-align: left ; font-size: 13px&quot;&gt;&lt;p dir=&quot;ltr&quot; style=&quot;line-height: 1.38 ; margin-top: 12pt ; margin-bottom: 12pt&quot;&gt;&lt;span style=&quot;font-size: 11pt ; font-family: &amp;#34;arial&amp;#34; ; background-color: transparent ; vertical-align: baseline&quot;&gt;SaleAccoutingtSupplementItem (&lt;/span&gt;&lt;span style=&quot;font-size: 11pt ; font-family: &amp;#34;arial&amp;#34; ; background-color: transparent ; vertical-align: baseline&quot;&gt;)&lt;/span&gt;&lt;/p&gt;&lt;div&gt;&lt;span style=&quot;font-size: 11pt ; font-family: &amp;#34;arial&amp;#34; ; background-color: transparent ; vertical-align: baseline&quot;&gt;&lt;br&gt;&lt;/span&gt;&lt;/div&gt;&lt;/span&gt;" style="text;html=1;strokeColor=none;fillColor=none;align=center;verticalAlign=middle;whiteSpace=wrap;rounded=0;" vertex="1" parent="1">
          <mxGeometry x="240" y="440" width="250" height="40" as="geometry" />
        </mxCell>
        <mxCell id="eNYuHUuUJ5BOVfInrnfF-2" value="&lt;span id=&quot;docs-internal-guid-f85bfaa0-7fff-9a6b-ba9b-2f663f60cca4&quot; style=&quot;text-align: left ; font-size: 14.6667px&quot;&gt;&lt;p dir=&quot;ltr&quot; style=&quot;line-height: 1.38 ; margin-top: 12pt ; margin-bottom: 12pt&quot;&gt;&lt;font face=&quot;arial&quot;&gt;CarInventoryRecoOptionEquipment&lt;/font&gt;&lt;/p&gt;&lt;/span&gt;" style="text;html=1;strokeColor=none;fillColor=none;align=center;verticalAlign=middle;whiteSpace=wrap;rounded=0;" vertex="1" parent="1">
          <mxGeometry x="240" y="270" width="230" height="40" as="geometry" />
        </mxCell>
      </root>
    </mxGraphModel>
  </diagram>
</mxfile>
